<?xml version="1.0" standalone="no"?>
<!DOCTYPE svg PUBLIC "-//W3C//DTD SVG 20010904//EN"
 "http://www.w3.org/TR/2001/REC-SVG-20010904/DTD/svg10.dtd">
<svg version="1.0" xmlns="http://www.w3.org/2000/svg"
 width="128.000000pt" height="128.000000pt" viewBox="0 0 128.000000 128.000000"
 preserveAspectRatio="xMidYMid meet">
<metadata>
Created by potrace 1.14, written by Peter Selinger 2001-2017
</metadata>
<g transform="translate(0.000000,128.000000) scale(0.100000,-0.100000)"
fill="#000000" stroke="none">
<path d="M252 1115 c-89 -39 -142 -118 -142 -210 0 -39 -5 -50 -34 -76 -154
-134 -42 -395 163 -377 l36 3 0 -110 0 -110 -95 -1 c-52 -1 -103 -2 -112 -3
-14 -1 -18 -10 -18 -43 l0 -43 592 2 c326 0 602 2 614 2 17 1 20 7 20 43 l-1
42 -135 1 -135 0 -3 106 -3 106 71 5 c53 4 79 12 110 32 92 61 123 169 77 268
-14 31 -39 66 -59 81 -29 23 -33 31 -30 60 12 108 -91 229 -197 229 -102 0
-111 -7 -78 -58 14 -22 31 -68 38 -104 9 -46 21 -74 40 -95 77 -84 97 -223 46
-327 -16 -32 -46 -73 -69 -92 l-40 -35 -1 -88 -2 -88 -107 -3 -108 -3 0 110 0
109 69 4 c83 4 137 35 176 101 51 88 36 194 -38 267 -38 38 -42 46 -43 95 -2
94 -71 178 -167 203 -70 19 -161 -11 -211 -70 -38 -44 -62 -121 -52 -169 3
-16 2 -29 -2 -29 -14 0 -73 -62 -89 -93 -21 -42 -25 -133 -7 -177 33 -78 109
-129 201 -133 l58 -2 3 -108 3 -107 -110 0 -109 0 1 88 1 88 -45 41 c-60 56
-91 120 -96 202 -6 81 21 161 71 214 26 27 34 47 39 87 4 30 19 75 36 105 l30
52 -22 10 c-35 15 -99 14 -135 -2z"/>
</g>
</svg>
