<svg width="484" height="128" viewBox="0 0 484 128" fill="none" xmlns="http://www.w3.org/2000/svg">
<g clip-path="url(#clip0_3_41)">
<path d="M100.927 82.5858C104.197 83.4034 107.467 83.6759 111.283 82.5858C120.276 80.4056 127.089 72.775 127.907 63.7817C128.724 54.7884 124.091 46.6127 117.006 42.5249C116.733 42.2523 116.461 41.9798 116.461 41.7073C117.551 37.0744 117.278 31.8964 114.008 26.446C112.428 23.64 110.235 21.2269 107.593 19.3867C104.95 17.5464 101.926 16.3263 98.7467 15.8176C94.6589 15.2725 90.8436 15.8176 87.3007 17.1802C86.7557 17.4527 86.4832 17.9978 87.0282 18.5428C91.1161 23.1757 93.8413 29.7163 93.8413 37.0744V37.892C93.8413 38.1645 93.8413 38.437 94.1138 38.437C100.927 44.16 104.742 52.3357 104.742 61.329C104.742 71.9574 99.2918 80.9506 91.1161 86.4011C90.8436 86.6736 90.571 86.9462 90.571 87.4912V104.115C90.571 104.66 90.2985 104.933 89.7535 104.933H69.8593C69.3142 104.933 69.0417 104.66 69.0417 104.115V84.2209C69.0417 83.1308 69.8593 82.5858 70.9493 82.8583C73.9471 83.4034 77.4899 83.4034 80.7602 82.5858C89.4809 80.1331 95.749 72.775 96.5665 63.7817C97.3841 54.7884 92.7512 46.8852 85.6656 42.7974C85.3931 42.5249 85.1206 42.2523 85.1206 41.7073C85.9381 37.892 85.9381 33.5316 84.0305 29.1712C80.4877 20.723 72.312 15 63.0462 15.545C51.3277 16.0901 42.0619 25.6284 42.0619 37.3469C42.0619 38.9821 42.3344 40.3447 42.6069 41.9798C42.6069 42.5249 42.6069 42.7974 42.0619 43.0699C34.9763 47.1578 30.3434 55.0609 31.1609 64.0542C31.9785 73.32 38.7916 80.6781 47.7849 82.8583C51.0551 83.6759 54.0529 83.6759 57.0507 83.1308C57.8682 82.8583 58.9583 83.6759 58.9583 84.4934V104.388C58.9583 104.933 58.6858 105.205 58.1408 105.205H38.2465C37.7015 105.205 37.429 104.933 37.429 104.388V87.4912C37.429 87.2187 37.1565 86.9462 36.8839 86.6736C28.7082 81.2232 22.9852 71.9574 22.9852 61.329C22.9852 52.3357 26.8006 44.16 33.3411 38.7095C33.6137 38.437 33.8862 38.1645 33.8862 37.6194V36.8019C33.8862 29.7163 36.3389 23.1757 40.6993 17.9978C40.9718 17.4527 40.9718 16.9077 40.4267 16.6351C37.974 15.8176 35.5213 15.2725 32.7961 15C22.9852 15 14.537 21.5406 11.8118 30.8064C10.7217 34.3492 10.7217 37.892 11.5393 41.1622C11.5393 41.7073 11.5393 41.9798 10.9942 42.2523C3.90861 46.3402 -0.724288 54.2434 0.0932821 63.2366C0.910852 71.4123 7.99646 79.8605 15.8996 82.0407C19.715 83.1308 23.2578 83.1308 26.528 82.3133C27.0731 82.0407 27.6181 82.5858 27.6181 83.1308V103.843C27.6181 104.388 27.3456 104.66 26.8006 104.66H5.81627C5.27123 104.66 4.9987 104.933 4.9987 105.478V112.563C4.9987 113.108 5.27123 113.381 5.81627 113.381H126.817C127.362 113.381 127.634 113.108 127.634 112.563V105.478C127.634 104.933 127.362 104.66 126.817 104.66H100.927C100.382 104.66 100.109 104.388 100.109 103.843V82.5858C100.109 82.5858 100.654 82.3133 100.927 82.5858V82.5858Z" fill="url(#paint0_linear_3_41)"/>
<path d="M163.1 56.1C165.767 50.1 168.867 45.5333 172.4 42.4C175.933 39.2 179.767 37.6 183.9 37.6C184.833 37.6 185.733 37.6667 186.6 37.8C187.467 37.9333 188.3 38.1333 189.1 38.4C184.833 41 180.833 47.3333 177.1 57.4C173.433 67.4667 171.6 76.6333 171.6 84.9C171.6 88.6333 172.1 91.5 173.1 93.5C174.1 95.5 175.533 96.5 177.4 96.5C180.133 96.5 182.933 94.7333 185.8 91.2C188.667 87.6667 191.2 82.9333 193.4 77C195 72.8 196.2 68.4667 197 64C197.867 59.4667 198.3 55.1667 198.3 51.1C198.3 44.4333 197.333 39.8667 195.4 37.4C193.467 34.8667 190.167 33.6 185.5 33.6C177.3 33.6 170.433 36.0333 164.9 40.9C159.433 45.7 156.7 51.8333 156.7 59.3C156.7 60.2333 156.733 61.0667 156.8 61.8C156.933 62.4667 157.167 63.1667 157.5 63.9C157.567 64.1667 157.6 64.3667 157.6 64.5C157.667 64.5667 157.7 64.6333 157.7 64.7C154.3 64.7 151.767 64.0333 150.1 62.7C148.433 61.3 147.6 59.1667 147.6 56.3C147.6 52.5667 148.9 48.9 151.5 45.3C154.167 41.6333 157.833 38.4333 162.5 35.7C166.233 33.5667 170.267 31.9333 174.6 30.8C179 29.6 183.433 29 187.9 29C195.767 29 201.667 31.1667 205.6 35.5C209.6 39.7667 211.6 46.1333 211.6 54.6C211.6 60.1333 210.8 65.8333 209.2 71.7C207.6 77.5667 205.4 82.8 202.6 87.4C199.2 93 195.133 97.2667 190.4 100.2C185.667 103.133 180.433 104.6 174.7 104.6C168.833 104.6 164.367 102.9 161.3 99.5C158.3 96.1 156.8 91.1 156.8 84.5C156.8 80.2333 157.367 75.5333 158.5 70.4C159.633 65.2 161.167 60.4333 163.1 56.1ZM223.104 104H208.704L219.304 54H233.704L232.404 60.2C235.337 57.7333 237.637 56.1 239.304 55.3C241.037 54.4333 242.771 54 244.504 54C246.571 54 248.237 54.7333 249.504 56.2C250.771 57.6 251.404 59.3667 251.404 61.5C251.404 63.5667 250.737 65.3 249.404 66.7C248.071 68.1 246.337 68.8 244.204 68.8C243.071 68.8 242.171 68.5333 241.504 68C240.904 67.4667 240.471 66.3667 240.204 64.7C240.004 63.6333 239.771 62.9667 239.504 62.7C239.237 62.3667 238.871 62.2 238.404 62.2C237.271 62.2 236.204 62.4333 235.204 62.9C234.204 63.3667 232.837 64.4 231.104 66L223.104 104ZM286.802 62.3C286.802 64.5667 286.302 66.3667 285.302 67.7C284.368 68.9667 283.102 69.6 281.502 69.6C280.968 69.6 280.402 69.5 279.802 69.3C279.202 69.1 278.602 68.8 278.002 68.4C278.402 67.3333 278.702 66.3 278.902 65.3C279.102 64.3 279.202 63.3667 279.202 62.5C279.202 61.1667 278.968 60.1667 278.502 59.5C278.035 58.7667 277.335 58.4 276.402 58.4C273.468 58.4 270.602 61.8 267.802 68.6C265.002 75.3333 263.602 81.7333 263.602 87.8C263.602 90.8667 264.102 93.0333 265.102 94.3C266.168 95.5667 268.068 96.2 270.802 96.2C273.935 96.2 276.802 95.5 279.402 94.1C282.068 92.6333 285.102 89.9667 288.502 86.1H291.902C288.035 92.3667 283.835 97.0333 279.302 100.1C274.768 103.1 269.802 104.6 264.402 104.6C259.268 104.6 255.368 103.267 252.702 100.6C250.102 97.9333 248.802 93.9667 248.802 88.7C248.802 84.9 249.368 80.8667 250.502 76.6C251.702 72.3333 253.335 68.5333 255.402 65.2C257.868 61.2 260.802 58.2 264.202 56.2C267.668 54.1333 271.502 53.1 275.702 53.1C279.368 53.1 282.135 53.9 284.002 55.5C285.868 57.0333 286.802 59.3 286.802 62.3ZM313.562 93.3C313.562 92.1 313.695 90.6 313.962 88.8C314.295 87 314.928 84.1333 315.862 80.2C316.795 76.4 317.395 73.6667 317.662 72C317.928 70.3333 318.062 68.9333 318.062 67.8C318.062 66.1333 317.728 64.8667 317.062 64C316.462 63.1333 315.562 62.7 314.362 62.7C312.762 62.7 311.195 63.6667 309.662 65.6C308.195 67.4667 307.228 69.4333 306.762 71.5L299.862 104H285.462L299.962 36L314.762 34L309.362 59.2C311.028 57.3333 312.828 55.9333 314.762 55C316.695 54.0667 318.795 53.6 321.062 53.6C324.595 53.6 327.328 54.5667 329.262 56.5C331.195 58.4333 332.162 61.2333 332.162 64.9C332.162 66.4333 331.962 68.2667 331.562 70.4C331.228 72.4667 330.528 75.6667 329.462 80C328.595 83.4 328.028 85.8 327.762 87.2C327.495 88.6 327.362 89.7667 327.362 90.7C327.362 92.1 327.695 93.1667 328.362 93.9C329.028 94.5667 330.028 94.9 331.362 94.9C333.028 94.9 334.462 94.3333 335.662 93.2C336.862 92.0667 338.228 89.7 339.762 86.1H343.962C341.828 92.3 339.228 96.9333 336.162 100C333.162 103.067 329.562 104.6 325.362 104.6C321.628 104.6 318.728 103.6 316.662 101.6C314.595 99.5333 313.562 96.7667 313.562 93.3ZM372.25 58.6V59.3L373.35 54H387.75L380.55 88C380.417 88.6 380.317 89.1667 380.25 89.7C380.183 90.1667 380.15 90.6667 380.15 91.2C380.15 92.6667 380.483 93.7667 381.15 94.5C381.817 95.1667 382.85 95.5 384.25 95.5C385.983 95.5 387.55 94.7 388.95 93.1C390.35 91.4333 391.483 89.1 392.35 86.1H396.55C394.417 92.2333 391.65 96.8667 388.25 100C384.85 103.067 380.917 104.6 376.45 104.6C373.583 104.6 371.283 103.8 369.55 102.2C367.883 100.6 366.917 98.3333 366.65 95.4C364.583 98.4667 362.283 100.767 359.75 102.3C357.283 103.833 354.617 104.6 351.75 104.6C347.617 104.6 344.35 103.2 341.95 100.4C339.617 97.6 338.45 93.6333 338.45 88.5C338.45 84.7667 339.017 80.8667 340.15 76.8C341.283 72.7333 342.85 69.0333 344.85 65.7C347.317 61.7667 350.183 58.7667 353.45 56.7C356.717 54.5667 360.283 53.5 364.15 53.5C366.75 53.5 368.75 53.9667 370.15 54.9C371.55 55.7667 372.25 57 372.25 58.6ZM371.35 63.5C371.35 62.5 370.983 61.6333 370.25 60.9C369.517 60.1 368.517 59.7 367.25 59.7C363.583 59.7 360.317 62.7667 357.45 68.9C354.65 75.0333 353.25 81.1 353.25 87.1C353.25 89.7 353.617 91.6667 354.35 93C355.083 94.2667 356.383 94.9 358.25 94.9C359.983 94.9 361.65 94.0667 363.25 92.4C364.917 90.7333 366.017 88.6333 366.55 86.1L371.35 63.5ZM402.694 104H388.294L398.894 54H413.294L411.994 60.2C414.927 57.7333 417.227 56.1 418.894 55.3C420.627 54.4333 422.36 54 424.094 54C426.16 54 427.827 54.7333 429.094 56.2C430.36 57.6 430.994 59.3667 430.994 61.5C430.994 63.5667 430.327 65.3 428.994 66.7C427.66 68.1 425.927 68.8 423.794 68.8C422.66 68.8 421.76 68.5333 421.094 68C420.494 67.4667 420.06 66.3667 419.794 64.7C419.594 63.6333 419.36 62.9667 419.094 62.7C418.827 62.3667 418.46 62.2 417.994 62.2C416.86 62.2 415.794 62.4333 414.794 62.9C413.794 63.3667 412.427 64.4 410.694 66L402.694 104ZM442.02 87.1C442.02 89.7 442.386 91.6667 443.12 93C443.853 94.2667 445.153 94.9 447.02 94.9C448.686 94.9 450.32 94.1333 451.92 92.6C453.52 91 454.62 89 455.22 86.6V86.1L460.12 63.2C459.92 62.1333 459.453 61.3 458.72 60.7C458.053 60.0333 457.153 59.7 456.02 59.7C452.353 59.7 449.086 62.7667 446.22 68.9C443.42 75.0333 442.02 81.1 442.02 87.1ZM461.02 58.6V59L465.92 36L480.72 34L469.22 88C469.086 88.6 468.986 89.1667 468.92 89.7C468.853 90.1667 468.82 90.6667 468.82 91.2C468.82 92.5333 469.12 93.5 469.72 94.1C470.386 94.6333 471.453 94.9 472.92 94.9C474.653 94.9 476.22 94.1333 477.62 92.6C479.02 91.0667 480.153 88.9 481.02 86.1H485.22C483.153 92.0333 480.453 96.5 477.12 99.5C473.853 102.5 469.853 104 465.12 104C462.386 104 460.153 103.267 458.42 101.8C456.753 100.267 455.72 98.1333 455.32 95.4C453.32 98.4667 451.086 100.767 448.62 102.3C446.153 103.833 443.453 104.6 440.52 104.6C436.386 104.6 433.12 103.2 430.72 100.4C428.386 97.6 427.22 93.6333 427.22 88.5C427.22 84.7667 427.786 80.8667 428.92 76.8C430.053 72.7333 431.62 69.0333 433.62 65.7C436.086 61.7667 438.953 58.7667 442.22 56.7C445.486 54.5667 449.053 53.5 452.92 53.5C455.52 53.5 457.52 53.9667 458.92 54.9C460.32 55.7667 461.02 57 461.02 58.6Z" fill="#292524"/>
</g>
<defs>
<linearGradient id="paint0_linear_3_41" x1="-6.82451" y1="14.1707" x2="109.183" y2="68.2658" gradientUnits="userSpaceOnUse">
<stop stop-color="#FBBF24"/>
<stop offset="1" stop-color="#FB7185"/>
</linearGradient>
<clipPath id="clip0_3_41">
<rect width="484" height="128" fill="white"/>
</clipPath>
</defs>
</svg>
