<svg width="128" height="128" viewBox="0 0 128 128" fill="none" xmlns="http://www.w3.org/2000/svg">
<path d="M100.927 82.5858C104.197 83.4034 107.467 83.6759 111.283 82.5858C120.276 80.4056 127.089 72.775 127.907 63.7817C128.724 54.7884 124.091 46.6127 117.006 42.5249C116.733 42.2523 116.461 41.9798 116.461 41.7073C117.551 37.0744 117.278 31.8964 114.008 26.446C112.428 23.64 110.235 21.2269 107.593 19.3867C104.95 17.5464 101.926 16.3263 98.7467 15.8176C94.6589 15.2725 90.8436 15.8176 87.3007 17.1802C86.7557 17.4527 86.4832 17.9978 87.0282 18.5428C91.1161 23.1757 93.8413 29.7163 93.8413 37.0744V37.892C93.8413 38.1645 93.8413 38.437 94.1138 38.437C100.927 44.16 104.742 52.3357 104.742 61.329C104.742 71.9574 99.2918 80.9506 91.1161 86.4011C90.8436 86.6736 90.571 86.9462 90.571 87.4912V104.115C90.571 104.66 90.2985 104.933 89.7535 104.933H69.8593C69.3142 104.933 69.0417 104.66 69.0417 104.115V84.2209C69.0417 83.1308 69.8593 82.5858 70.9493 82.8583C73.9471 83.4034 77.4899 83.4034 80.7602 82.5858C89.4809 80.1331 95.749 72.775 96.5665 63.7817C97.3841 54.7884 92.7512 46.8852 85.6656 42.7974C85.3931 42.5249 85.1206 42.2523 85.1206 41.7073C85.9381 37.892 85.9381 33.5316 84.0305 29.1712C80.4877 20.723 72.312 15 63.0462 15.545C51.3277 16.0901 42.0619 25.6284 42.0619 37.3469C42.0619 38.9821 42.3344 40.3447 42.6069 41.9798C42.6069 42.5249 42.6069 42.7974 42.0619 43.0699C34.9763 47.1578 30.3434 55.0609 31.1609 64.0542C31.9785 73.32 38.7916 80.6781 47.7849 82.8583C51.0551 83.6759 54.0529 83.6759 57.0507 83.1308C57.8682 82.8583 58.9583 83.6759 58.9583 84.4934V104.388C58.9583 104.933 58.6858 105.205 58.1408 105.205H38.2465C37.7015 105.205 37.429 104.933 37.429 104.388V87.4912C37.429 87.2187 37.1565 86.9462 36.8839 86.6736C28.7082 81.2232 22.9852 71.9574 22.9852 61.329C22.9852 52.3357 26.8006 44.16 33.3411 38.7095C33.6137 38.437 33.8862 38.1645 33.8862 37.6194V36.8019C33.8862 29.7163 36.3389 23.1757 40.6993 17.9978C40.9718 17.4527 40.9718 16.9077 40.4267 16.6351C37.974 15.8176 35.5213 15.2725 32.7961 15C22.9852 15 14.537 21.5406 11.8118 30.8064C10.7217 34.3492 10.7217 37.892 11.5393 41.1622C11.5393 41.7073 11.5393 41.9798 10.9942 42.2523C3.90861 46.3402 -0.724288 54.2434 0.0932821 63.2366C0.910852 71.4123 7.99646 79.8605 15.8996 82.0407C19.715 83.1308 23.2578 83.1308 26.528 82.3133C27.0731 82.0407 27.6181 82.5858 27.6181 83.1308V103.843C27.6181 104.388 27.3456 104.66 26.8006 104.66H5.81627C5.27123 104.66 4.9987 104.933 4.9987 105.478V112.563C4.9987 113.108 5.27123 113.381 5.81627 113.381H126.817C127.362 113.381 127.634 113.108 127.634 112.563V105.478C127.634 104.933 127.362 104.66 126.817 104.66H100.927C100.382 104.66 100.109 104.388 100.109 103.843V82.5858C100.109 82.5858 100.654 82.3133 100.927 82.5858V82.5858Z" fill="url(#paint0_linear_3_49)"/>
<defs>
<linearGradient id="paint0_linear_3_49" x1="-6.82451" y1="14.1707" x2="109.183" y2="68.2658" gradientUnits="userSpaceOnUse">
<stop stop-color="#FBBF24"/>
<stop offset="1" stop-color="#FB7185"/>
</linearGradient>
</defs>
</svg>
