<svg data-v-423bf9ae="" xmlns="http://www.w3.org/2000/svg" viewBox="0 0 268.0718381775121 60" class="font"><!----><!----><!----><g data-v-423bf9ae="" id="5f424529-a84f-4741-a6ef-3e27ab049411" fill="black" transform="matrix(5.671077728271484,0,0,5.671077728271484,-1.247637391090393,-22.627599716186523)"><path d="M2.39 7.78L2.39 7.78L2.39 7.78Q2.95 6.52 3.70 5.86L3.70 5.86L3.70 5.86Q4.44 5.19 5.31 5.19L5.31 5.19L5.31 5.19Q5.50 5.19 5.68 5.22L5.68 5.22L5.68 5.22Q5.87 5.25 6.03 5.31L6.03 5.31L6.03 5.31Q5.14 5.85 4.36 7.97L4.36 7.97L4.36 7.97Q3.58 10.08 3.58 11.82L3.58 11.82L3.58 11.82Q3.58 12.60 3.79 13.02L3.79 13.02L3.79 13.02Q4.00 13.44 4.40 13.44L4.40 13.44L4.40 13.44Q4.97 13.44 5.57 12.70L5.57 12.70L5.57 12.70Q6.17 11.96 6.64 10.71L6.64 10.71L6.64 10.71Q6.97 9.83 7.15 8.88L7.15 8.88L7.15 8.88Q7.32 7.94 7.32 7.08L7.32 7.08L7.32 7.08Q7.32 5.68 6.92 5.16L6.92 5.16L6.92 5.16Q6.51 4.63 5.53 4.63L5.53 4.63L5.53 4.63Q3.81 4.63 2.65 5.65L2.65 5.65L2.65 5.65Q1.50 6.66 1.50 8.23L1.50 8.23L1.50 8.23Q1.50 8.43 1.52 8.57L1.52 8.57L1.52 8.57Q1.54 8.72 1.61 8.88L1.61 8.88L1.61 8.88Q1.62 8.93 1.63 8.95L1.63 8.95L1.63 8.95Q1.64 8.97 1.64 8.99L1.64 8.99L1.64 8.99Q0.92 8.99 0.57 8.70L0.57 8.70L0.57 8.70Q0.22 8.41 0.22 7.81L0.22 7.81L0.22 7.81Q0.22 7.03 0.78 6.27L0.78 6.27L0.78 6.27Q1.33 5.50 2.31 4.93L2.31 4.93L2.31 4.93Q3.09 4.48 4.01 4.23L4.01 4.23L4.01 4.23Q4.93 3.99 5.87 3.99L5.87 3.99L5.87 3.99Q7.52 3.99 8.35 4.89L8.35 4.89L8.35 4.89Q9.18 5.80 9.18 7.57L9.18 7.57L9.18 7.57Q9.18 8.74 8.85 9.97L8.85 9.97L8.85 9.97Q8.51 11.20 7.92 12.17L7.92 12.17L7.92 12.17Q7.21 13.34 6.22 13.96L6.22 13.96L6.22 13.96Q5.22 14.57 4.02 14.57L4.02 14.57L4.02 14.57Q2.79 14.57 2.15 13.86L2.15 13.86L2.15 13.86Q1.51 13.15 1.51 11.76L1.51 11.76L1.51 11.76Q1.51 10.86 1.75 9.78L1.75 9.78L1.75 9.78Q1.99 8.69 2.39 7.78ZM11.91 9.17L10.79 14.49L8.78 14.49L10.26 7.49L12.28 7.49L12.10 8.36L12.10 8.36Q12.71 7.84 13.07 7.67L13.07 7.67L13.07 7.67Q13.43 7.49 13.79 7.49L13.79 7.49L13.79 7.49Q14.22 7.49 14.49 7.79L14.49 7.79L14.49 7.79Q14.76 8.09 14.76 8.54L14.76 8.54L14.76 8.54Q14.76 8.97 14.48 9.27L14.48 9.27L14.48 9.27Q14.20 9.56 13.75 9.56L13.75 9.56L13.75 9.56Q13.51 9.56 13.38 9.45L13.38 9.45L13.38 9.45Q13.24 9.34 13.19 8.99L13.19 8.99L13.19 8.99Q13.15 8.76 13.09 8.70L13.09 8.70L13.09 8.70Q13.03 8.64 12.94 8.64L12.94 8.64L12.94 8.64Q12.70 8.64 12.49 8.74L12.49 8.74L12.49 8.74Q12.28 8.83 11.91 9.17L11.91 9.17ZM19.71 8.65L19.71 8.65L19.71 8.65Q19.71 9.13 19.51 9.40L19.51 9.40L19.51 9.40Q19.31 9.67 18.97 9.67L18.97 9.67L18.97 9.67Q18.86 9.67 18.73 9.63L18.73 9.63L18.73 9.63Q18.61 9.59 18.48 9.51L18.48 9.51L18.48 9.51Q18.56 9.28 18.61 9.07L18.61 9.07L18.61 9.07Q18.65 8.86 18.65 8.68L18.65 8.68L18.65 8.68Q18.65 8.40 18.55 8.25L18.55 8.25L18.55 8.25Q18.45 8.11 18.26 8.11L18.26 8.11L18.26 8.11Q17.64 8.11 17.05 9.53L17.05 9.53L17.05 9.53Q16.46 10.95 16.46 12.22L16.46 12.22L16.46 12.22Q16.46 12.87 16.68 13.13L16.68 13.13L16.68 13.13Q16.90 13.40 17.47 13.40L17.47 13.40L17.47 13.40Q18.13 13.40 18.68 13.10L18.68 13.10L18.68 13.10Q19.24 12.80 19.95 11.98L19.95 11.98L20.43 11.98L20.43 11.98Q19.61 13.30 18.66 13.94L18.66 13.94L18.66 13.94Q17.71 14.57 16.58 14.57L16.58 14.57L16.58 14.57Q15.50 14.57 14.95 14.01L14.95 14.01L14.95 14.01Q14.39 13.45 14.39 12.35L14.39 12.35L14.39 12.35Q14.39 11.55 14.64 10.65L14.64 10.65L14.64 10.65Q14.88 9.76 15.32 9.06L15.32 9.06L15.32 9.06Q15.83 8.22 16.56 7.79L16.56 7.79L16.56 7.79Q17.28 7.36 18.16 7.36L18.16 7.36L18.16 7.36Q18.93 7.36 19.32 7.69L19.32 7.69L19.32 7.69Q19.71 8.02 19.71 8.65ZM23.46 12.99L23.46 12.99L23.46 12.99Q23.46 12.74 23.53 12.36L23.53 12.36L23.53 12.36Q23.59 11.98 23.79 11.16L23.79 11.16L23.79 11.16Q23.98 10.36 24.04 10.01L24.04 10.01L24.04 10.01Q24.09 9.66 24.09 9.42L24.09 9.42L24.09 9.42Q24.09 9.07 23.96 8.89L23.96 8.89L23.96 8.89Q23.83 8.71 23.58 8.71L23.58 8.71L23.58 8.71Q23.24 8.71 22.93 9.11L22.93 9.11L22.93 9.11Q22.61 9.51 22.51 9.94L22.51 9.94L21.55 14.49L19.53 14.49L21.56 4.97L23.63 4.69L22.88 8.22L22.88 8.22Q23.23 7.83 23.63 7.63L23.63 7.63L23.63 7.63Q24.04 7.43 24.51 7.43L24.51 7.43L24.51 7.43Q25.26 7.43 25.66 7.84L25.66 7.84L25.66 7.84Q26.07 8.25 26.07 9.02L26.07 9.02L26.07 9.02Q26.07 9.34 25.99 9.78L25.99 9.78L25.99 9.78Q25.91 10.22 25.69 11.13L25.69 11.13L25.69 11.13Q25.51 11.84 25.45 12.14L25.45 12.14L25.45 12.14Q25.40 12.43 25.40 12.63L25.40 12.63L25.40 12.63Q25.40 12.92 25.54 13.07L25.54 13.07L25.54 13.07Q25.68 13.22 25.96 13.22L25.96 13.22L25.96 13.22Q26.31 13.22 26.56 12.98L26.56 12.98L26.56 12.98Q26.81 12.74 27.13 11.98L27.13 11.98L27.72 11.98L27.72 11.98Q27.27 13.29 26.64 13.93L26.64 13.93L26.64 13.93Q26.00 14.57 25.12 14.57L25.12 14.57L25.12 14.57Q24.33 14.57 23.90 14.15L23.90 14.15L23.90 14.15Q23.46 13.72 23.46 12.99ZM31.68 8.13L31.68 8.13L31.68 8.23L31.84 7.49L33.85 7.49L32.84 12.25L32.84 12.25Q32.82 12.38 32.80 12.48L32.80 12.48L32.80 12.48Q32.79 12.59 32.79 12.70L32.79 12.70L32.79 12.70Q32.79 13.01 32.93 13.15L32.93 13.15L32.93 13.15Q33.07 13.30 33.36 13.30L33.36 13.30L33.36 13.30Q33.73 13.30 34.02 12.96L34.02 12.96L34.02 12.96Q34.31 12.61 34.50 11.98L34.50 11.98L35.08 11.98L35.08 11.98Q34.64 13.27 33.92 13.92L33.92 13.92L33.92 13.92Q33.21 14.57 32.27 14.57L32.27 14.57L32.27 14.57Q31.67 14.57 31.31 14.24L31.31 14.24L31.31 14.24Q30.95 13.90 30.90 13.29L30.90 13.29L30.90 13.29Q30.46 13.93 29.94 14.25L29.94 14.25L29.94 14.25Q29.41 14.57 28.81 14.57L28.81 14.57L28.81 14.57Q27.94 14.57 27.45 13.99L27.45 13.99L27.45 13.99Q26.95 13.40 26.95 12.32L26.95 12.32L26.95 12.32Q26.95 11.54 27.19 10.68L27.19 10.68L27.19 10.68Q27.43 9.83 27.85 9.13L27.85 9.13L27.85 9.13Q28.36 8.30 29.05 7.86L29.05 7.86L29.05 7.86Q29.74 7.42 30.55 7.42L30.55 7.42L30.55 7.42Q31.09 7.42 31.39 7.61L31.39 7.61L31.39 7.61Q31.68 7.80 31.68 8.13ZM30.88 11.98L31.56 8.82L31.56 8.82Q31.56 8.61 31.40 8.45L31.40 8.45L31.40 8.45Q31.25 8.29 30.98 8.29L30.98 8.29L30.98 8.29Q30.21 8.29 29.62 9.58L29.62 9.58L29.62 9.58Q29.02 10.86 29.02 12.12L29.02 12.12L29.02 12.12Q29.02 12.67 29.18 12.94L29.18 12.94L29.18 12.94Q29.33 13.22 29.72 13.22L29.72 13.22L29.72 13.22Q30.09 13.22 30.43 12.87L30.43 12.87L30.43 12.87Q30.77 12.52 30.88 11.98L30.88 11.98ZM37.06 9.17L35.94 14.49L33.92 14.49L35.41 7.49L37.42 7.49L37.24 8.36L37.24 8.36Q37.86 7.84 38.21 7.67L38.21 7.67L38.21 7.67Q38.57 7.49 38.93 7.49L38.93 7.49L38.93 7.49Q39.37 7.49 39.63 7.79L39.63 7.79L39.63 7.79Q39.90 8.09 39.90 8.54L39.90 8.54L39.90 8.54Q39.90 8.97 39.62 9.27L39.62 9.27L39.62 9.27Q39.34 9.56 38.89 9.56L38.89 9.56L38.89 9.56Q38.65 9.56 38.52 9.45L38.52 9.45L38.52 9.45Q38.39 9.34 38.33 8.99L38.33 8.99L38.33 8.99Q38.29 8.76 38.23 8.70L38.23 8.70L38.23 8.70Q38.18 8.64 38.08 8.64L38.08 8.64L38.08 8.64Q37.84 8.64 37.63 8.74L37.63 8.74L37.63 8.74Q37.42 8.83 37.06 9.17L37.06 9.17ZM41.44 12.12L41.44 12.12L41.44 12.12Q41.44 12.67 41.59 12.94L41.59 12.94L41.59 12.94Q41.75 13.22 42.14 13.22L42.14 13.22L42.14 13.22Q42.49 13.22 42.83 12.89L42.83 12.89L42.83 12.89Q43.16 12.56 43.29 12.05L43.29 12.05L43.29 11.98L43.97 8.78L43.97 8.78Q43.93 8.55 43.79 8.42L43.79 8.42L43.79 8.42Q43.64 8.29 43.40 8.29L43.40 8.29L43.40 8.29Q42.63 8.29 42.04 9.58L42.04 9.58L42.04 9.58Q41.44 10.86 41.44 12.12ZM44.10 8.13L44.10 8.13L44.10 8.19L44.79 4.97L46.86 4.69L45.25 12.25L45.25 12.25Q45.22 12.38 45.21 12.48L45.21 12.48L45.21 12.48Q45.19 12.59 45.19 12.70L45.19 12.70L45.19 12.70Q45.19 12.98 45.33 13.10L45.33 13.10L45.33 13.10Q45.46 13.22 45.77 13.22L45.77 13.22L45.77 13.22Q46.13 13.22 46.42 12.89L46.42 12.89L46.42 12.89Q46.72 12.57 46.90 11.98L46.90 11.98L47.49 11.98L47.49 11.98Q47.05 13.23 46.36 13.86L46.36 13.86L46.36 13.86Q45.67 14.49 44.67 14.49L44.67 14.49L44.67 14.49Q44.10 14.49 43.74 14.18L43.74 14.18L43.74 14.18Q43.39 13.86 43.30 13.29L43.30 13.29L43.30 13.29Q42.88 13.93 42.36 14.25L42.36 14.25L42.36 14.25Q41.85 14.57 41.23 14.57L41.23 14.57L41.23 14.57Q40.36 14.57 39.87 13.99L39.87 13.99L39.87 13.99Q39.37 13.40 39.37 12.32L39.37 12.32L39.37 12.32Q39.37 11.54 39.61 10.68L39.61 10.68L39.61 10.68Q39.84 9.83 40.26 9.13L40.26 9.13L40.26 9.13Q40.78 8.30 41.47 7.86L41.47 7.86L41.47 7.86Q42.15 7.42 42.97 7.42L42.97 7.42L42.97 7.42Q43.51 7.42 43.81 7.61L43.81 7.61L43.81 7.61Q44.10 7.80 44.10 8.13Z"></path></g><!----><!----></svg>